<svg xmlns="http://www.w3.org/2000/svg" width="40" height="40" viewBox="0 0 40 39" fill="none">
  <path fill-rule="evenodd" clip-rule="evenodd" d="M9.79287 9.78638L4.17188 19.5001L9.79287 29.2138H13.0761L7.4551 19.5001L13.0761 9.78638H9.79287ZM20.3614 21.9285C21.0054 21.9285 21.6231 21.6726 22.0785 21.2172C22.5339 20.7618 22.7898 20.1441 22.7898 19.5001C22.7898 18.856 22.5339 18.2383 22.0785 17.7829C21.6231 17.3275 21.0054 17.0716 20.3614 17.0716C19.7173 17.0716 19.0996 17.3275 18.6442 17.7829C18.1888 18.2383 17.9329 18.856 17.9329 19.5001C17.9329 20.1441 18.1888 20.7618 18.6442 21.2172C19.0996 21.6726 19.7173 21.9285 20.3614 21.9285ZM36.5509 19.5001L30.9299 9.78638H27.6466L33.2676 19.5001L27.6466 29.2138H30.9299L36.5509 19.5001ZM14.3955 13.0243L10.6477 19.5001L14.3955 25.9759H17.6788L13.9309 19.5001L17.6772 13.0243H14.3955ZM30.6304 19.5001L26.8825 13.0243H23.5993L27.3471 19.5001L23.5993 25.9759H26.8825L30.6304 19.5001Z" fill="white"/>
</svg>