<svg xmlns="http://www.w3.org/2000/svg" width="33" height="43" viewBox="0 0 33 43" fill="none">
<path d="M6.89229 6.66064C5.47822 6.66064 4.12207 7.22238 3.12218 8.22227C2.12228 9.22217 1.56055 10.5783 1.56055 11.9924V26.7572C1.56055 28.1713 2.12228 29.5274 3.12218 30.5273C4.12207 31.5272 5.47822 32.0889 6.89229 32.0889H21.6571C23.0712 32.0889 24.4273 31.5272 25.4272 30.5273C26.4271 29.5274 26.9888 28.1713 26.9888 26.7572V11.9924C26.9888 10.5783 26.4271 9.22217 25.4272 8.22227C24.4273 7.22238 23.0712 6.66064 21.6571 6.66064H6.89229ZM4.02135 11.9924C4.02135 10.4076 5.30753 9.12145 6.89229 9.12145H21.6571C23.2419 9.12145 24.528 10.4076 24.528 11.9924V26.7572C24.528 27.5186 24.2256 28.2489 23.6872 28.7873C23.1488 29.3257 22.4185 29.6281 21.6571 29.6281H6.89229C6.13087 29.6281 5.40063 29.3257 4.86223 28.7873C4.32382 28.2489 4.02135 27.5186 4.02135 26.7572V11.9924ZM6.49856 33.7295C6.98083 34.4842 7.64544 35.1052 8.43106 35.5353C9.21668 35.9654 10.098 36.1907 10.9936 36.1903H22.4774C27.2349 36.1903 31.0902 32.335 31.0902 27.5775V16.0937C31.0902 14.2071 30.1091 12.5485 28.6294 11.6003V27.5791C28.6294 29.2107 27.9812 30.7755 26.8275 31.9292C25.6738 33.083 24.109 33.7311 22.4774 33.7311H10.9936L10.951 33.7295H6.49856Z" fill="white"/>
</svg>