<?xml version="1.0" encoding="UTF-8"?>
<svg width="492" height="100" version="1.1" viewBox="0 0 246 50" xmlns="http://www.w3.org/2000/svg">
 <g fill="#25317a">
  <path d="m33.922 29.61c0.7343-1.6086 1.084-3.3921 0.9442-5.1406h-0.07c-0.2098 0.0699-0.4196 0.1049-0.6294 0.1748-0.4197 0.1399-0.8393 0.2798-1.189 0.4197v0.035c0.0349 0.1049 0.0349 0.2098 0.0699 0.3497 0.1749 1.3288 0.1749 2.5878-0.035 3.7768-0.0349 0.2098-0.1049 0.4546-0.1398 0.7343 0.3147-0.1049 0.5595-0.2098 0.8043-0.2797l0.2448-0.07z"/>
  <path d="m24.968 35.59c-0.7344-0.1049-1.4688-0.3147-2.2031-0.6294-0.035 0.035-0.1049 0.035-0.1399 0.0699-0.07 0.035-0.1399 0.07-0.1749 0.1049-0.2098 0.1049-0.4196 0.2099-0.5595 0.2798 1.154 0.2798 2.378 0.3847 3.602 0.2798-0.2099-0.035-0.3497-0.07-0.5246-0.105z"/>
  <path d="m26.053 35.205c0.4547 0 0.8743-0.035 1.3289-0.1399-0.1049-0.0349-0.1748-0.0699-0.2798-0.1049-0.4196-0.2098-0.8043-0.4546-1.2589-0.8742-0.1049-0.1049-0.2098-0.2099-0.3497-0.3497-0.3847 0.1748-0.7344 0.3147-1.0841 0.4895l-0.2098 0.105c-0.2448 0.1049-0.4896 0.2098-0.7344 0.3497 0.5246 0.2448 1.0841 0.3846 1.6087 0.4895 0.2797 0 0.6294 0.035 0.9791 0.035z"/>
  <path d="m28.186 34.785c0.1049 0 0.2098 0 0.3497-0.07 0.4196-0.2098 0.5595-0.7343 0.6295-1.0141 0.0699-0.3847 0.1049-0.8393 0.0349-1.3638v-0.1749-0.035c-0.4546 0.2099-0.9791 0.4197-1.5037 0.6645-0.1399 0.0699-0.3147 0.1399-0.4546 0.2098l-0.1749 0.0699c-0.2098 0.105-0.4196 0.1749-0.6644 0.2798l-0.2098 0.1049c0.035 0.07 0.1049 0.1049 0.1399 0.1749 0.3497 0.4196 0.6994 0.6994 1.0141 0.9092 0.2098 0.1399 0.3847 0.2098 0.5945 0.2448 0.0699-0.035 0.1749 0 0.2448 0z"/>
  <path d="m31.229 32.442c0.2797-0.4546 0.5595-0.9442 0.7343-1.5037-0.2447 0.1049-0.5245 0.2098-0.7693 0.3147-0.3847 0.1749-0.8393 0.3497-1.2939 0.5595v0.4896c0 0.4197-0.035 0.9792-0.2098 1.5037-0.035 0.105-0.07 0.2099-0.1049 0.3148 0.6644-0.4546 1.2239-1.0142 1.6436-1.6786z"/>
  <path d="m33.572 30.309c-0.2098 0.0699-0.3847 0.1399-0.5945 0.2448-0.1049 0.0349-0.2098 0.0699-0.3147 0.1049-0.2448 0.7693-0.5945 1.4687-1.0491 2.0632-0.07 0.1049-0.1749 0.2448-0.2798 0.3497 0.9092-0.7693 1.6436-1.7135 2.2381-2.7626z"/>
  <path d="m29.865 31.148c0.3497-0.1399 0.7344-0.2797 1.1191-0.4546 0.4546-0.1748 0.8742-0.3497 1.2239-0.4546 0.1049-0.3847 0.1749-0.7344 0.2098-1.0841 0.1399-1.0841 0.105-2.2731-0.1398-3.532 0-0.0699-0.035-0.1399-0.035-0.2098-0.4546 0.1748-0.9442 0.3497-1.4338 0.5595l-0.3147 0.1049c-0.5246 0.2098-1.0841 0.4197-1.6087 0.6295 0.3148 0.9442 0.5246 1.7835 0.6994 2.6577 0.1399 0.6295 0.2448 1.224 0.2798 1.7835z"/>
  <path d="m25.738 32.897c0.5596-0.2448 1.1541-0.5246 1.6786-0.7344 0.4896-0.2098 1.0491-0.4546 1.6786-0.6994-0.1049-0.6994-0.2798-1.3289-0.4197-1.8884-0.2447-0.9442-0.5245-1.7485-0.7693-2.4829-0.6994 0.2798-1.4688 0.5945-2.308 0.9442l-0.2798 0.1049c-0.6994 0.3147-1.3639 0.5945-1.9583 0.8743 0.4196 0.8043 0.8392 1.5736 1.2939 2.308 0.3497 0.5945 0.7343 1.1191 1.084 1.5737z"/>
  <path d="m23.815 33.771 0.07-0.035c0.4196-0.2098 0.7693-0.3497 1.0841-0.4896-0.4546-0.5246-0.8393-1.0141-1.1191-1.3988-0.5245-0.7344-1.0141-1.5037-1.5037-2.378-0.6295 0.2798-1.154 0.5246-1.6436 0.7344-0.5595 0.2448-1.0841 0.4896-1.6086 0.7344 0 0.0349 0.0349 0.0349 0.0349 0.0699 0.035 0.0699 0.07 0.1049 0.1049 0.1749 0.7694 1.0141 1.6087 1.8883 2.4829 2.5178 0.2798 0.2098 0.5945 0.4197 0.9093 0.5945 0.5245-0.1748 0.9092-0.3847 1.1889-0.5245z"/>
  <path d="m21.332 35.065c0.2448-0.1398 0.4896-0.2797 0.7694-0.4196-0.2099-0.1049-0.4197-0.2448-0.6295-0.3847-1.0142-0.6644-1.9234-1.5387-2.7627-2.5528-0.0699-0.1049-0.1398-0.1749-0.2098-0.2798l-0.0699-0.1049h-0.035c-0.3147 0.1399-0.7344 0.3847-1.154 0.5945-0.1749 0.1049-0.3847 0.2098-0.5246 0.3147l-0.0349 0.035c1.2239 1.3289 2.7626 2.343 4.4762 2.9026l0.1748-0.105z"/>
  <path d="m16.017 19.748c0.2797-0.8043 0.6644-1.5037 1.119-2.1332-0.8043 0.7694-1.5037 1.6786-2.0283 2.6578 0.3148-0.1749 0.5945-0.3497 0.9093-0.5246z"/>
  <path d="m17.555 17.894c-0.3147 0.4196-0.5595 0.8743-0.7694 1.3988 0.2099-0.1049 0.4197-0.2448 0.6645-0.3497 0.4896-0.2448 0.9442-0.4896 1.4338-0.6994v-0.1049c0.0349-0.6295 0.1049-1.0841 0.2448-1.5387 0.0349-0.1049 0.0699-0.2098 0.1049-0.3147-0.6645 0.4546-1.259 1.0141-1.6786 1.6086z"/>
  <path d="m20.597 15.656c-0.1049 0-0.2098 0.0349-0.3147 0.0349-0.3147 0.1749-0.5245 0.5246-0.6295 1.0142-0.0699 0.3497-0.0699 0.6994-0.0699 1.154 0.4197-0.2098 0.8743-0.4196 1.3988-0.6295 0.5246-0.2098 0.9792-0.4196 1.3988-0.5945-0.3147-0.3147-0.5945-0.5595-0.8742-0.7693-0.2448-0.0699-0.5595-0.2098-0.9093-0.2098z"/>
  <path d="m21.402 15.342 0.3147 0.105c0.5245 0.2447 0.9442 0.5944 1.2589 0.8742l0.07 0.07c0.5245-0.2099 1.0141-0.3847 1.5037-0.5596 0.2797-0.1049 0.5245-0.1748 0.7693-0.2448-0.5245-0.2098-1.0491-0.3497-1.5387-0.4196-0.7343-0.07-1.5387-0.035-2.3779 0.1748z"/>
  <path d="m27.172 15.097c-1.0491-0.2798-2.1332-0.4196-3.2523-0.3497 0.7344 0.0699 1.5037 0.2798 2.2731 0.6295 0.3497-0.1399 0.6644-0.2099 0.9792-0.2798z"/>
  <path d="m28.151 15.412-0.1399 0.035c-0.3147 0.0699-0.6644 0.1748-1.0841 0.2798 0.1399 0.0699 0.3148 0.1748 0.4547 0.2797 1.0141 0.6645 1.9233 1.5387 2.7626 2.5878 0.035 0.07 0.1049 0.1049 0.1399 0.1749l0.035 0.0699c0.4546-0.1399 0.8742-0.2797 1.2589-0.3847 0.2448-0.0699 0.4896-0.1049 0.6644-0.1398h0.035c-1.0841-1.2939-2.5179-2.3081-4.1265-2.9026z"/>
  <path d="m24.794 16.461c-0.3847 0.1398-0.8043 0.3147-1.189 0.4546 0.4546 0.4896 0.9092 1.0141 1.3638 1.6785 0.3847 0.5246 0.7694 1.1541 1.1191 1.7835 0.5245-0.2098 1.0841-0.4196 1.7135-0.6644 0.6295-0.2448 1.189-0.4196 1.7485-0.6295v-0.0349c-0.7343-1.0492-1.5736-1.8884-2.4829-2.5179-0.2797-0.2098-0.5945-0.3847-0.9092-0.5595-0.4546 0.1399-0.9092 0.3147-1.3638 0.4896z"/>
  <path d="m21.507 17.79-0.5245 0.2098c-0.3847 0.1749-0.8043 0.3497-1.3289 0.5945 0.07 0.6644 0.2448 1.3988 0.4546 2.2731 0.1399 0.5245 0.3148 1.0491 0.5596 1.7835 0.2098-0.1049 0.4546-0.2099 0.6644-0.2798l0.0699-0.035c0.4547-0.2098 0.9442-0.3846 1.4338-0.5945 0.7344-0.3147 1.5037-0.6294 2.2731-0.9442-0.2798-0.5245-0.5945-1.0491-0.9442-1.6436-0.3147-0.4896-0.7694-1.189-1.3289-1.8884-0.4896 0.1399-0.9442 0.3497-1.3289 0.5246z"/>
  <path d="m18.918 18.944c-0.3847 0.1749-0.7344 0.3497-1.1541 0.5595-0.4196 0.2099-0.8393 0.4197-1.2589 0.6295-0.1049 0.3497-0.1748 0.6994-0.2098 1.0491-0.1399 1.0841-0.1049 2.2381 0.1399 3.4621 0.4895-0.2448 0.9791-0.4896 1.5387-0.7694 0.5945-0.2797 1.154-0.5245 1.7135-0.8043-0.2098-0.6644-0.3497-1.3289-0.4896-1.9933-0.1049-0.6644-0.2448-1.3638-0.2797-2.1332z"/>
  <path d="m14.687 21.252c-0.6295 1.5387-0.8743 3.2523-0.7344 4.8959 0.1399-0.1049 0.3147-0.2448 0.4896-0.3497 0.3497-0.2099 0.6994-0.4197 1.154-0.6994l0.0699-0.035c0-0.035 0-0.1049-0.0349-0.1399v-0.035c-0.2098-1.3288-0.2098-2.5878 0-3.7768 0.0349-0.1748 0.0699-0.3497 0.1049-0.5245-0.3847 0.2098-0.6994 0.4196-0.9792 0.5945l-0.0699 0.0699z"/>
  <path d="m16.226 31.778 0.0699-0.0699c0.2098-0.1399 0.3847-0.2798 0.5595-0.4197 0.3497-0.2448 0.7344-0.4546 1.0841-0.6644-0.4896-0.6994-0.8742-1.4338-1.2239-2.2031-0.3847-0.8743-0.6645-1.7486-0.8743-2.6578-0.2798 0.1399-0.6644 0.3147-1.0491 0.5595-0.1399 0.105-0.3497 0.2099-0.5246 0.3148-0.0699 0.0349-0.1398 0.1049-0.1748 0.1399l-0.035 0.0349c0.1399 0.8393 0.3847 1.6786 0.7344 2.4829 0.3497 0.9442 0.8393 1.7485 1.4338 2.4829z"/>
  <path d="m32.837 24.329c0.3147-0.1049 0.6994-0.2099 1.119-0.3497 0.2448-0.07 0.4546-0.1049 0.6645-0.1399 0.0349 0 0.1049 0 0.1398-0.035-0.1398-0.9442-0.3846-1.8884-0.7693-2.7976-0.3497-0.7694-0.7694-1.5037-1.2589-2.1682h-0.07c-0.1049 0-0.2098 0.035-0.2797 0.07-0.2099 0.0349-0.4197 0.1049-0.6295 0.1748-0.3147 0.1049-0.6295 0.2098-0.9792 0.3497 0.4896 0.7344 0.9093 1.5387 1.2939 2.378 0.3497 0.8393 0.5945 1.6786 0.7694 2.5179z"/>
  <path d="m32.033 24.609c-0.2098-0.8043-0.4896-1.6086-0.8043-2.4129-0.3497-0.8393-0.7693-1.6436-1.2589-2.413-0.5945 0.2448-1.189 0.4547-1.8884 0.7344-0.5246 0.2098-1.0491 0.4197-1.5737 0.6295 0.4197 0.8043 0.8393 1.6786 1.2939 2.6228 0.3147 0.7343 0.5945 1.4337 0.8393 2.1331 0.5595-0.2098 1.0841-0.4196 1.5737-0.6294 0.6294-0.2448 1.2239-0.4546 1.8184-0.6645z"/>
  <path d="m22.976 28.246c0.2798-0.1399 0.5596-0.2448 0.8743-0.3847 0.5595-0.2448 1.0141-0.4196 1.4338-0.5945 0.8742-0.3847 1.6436-0.6994 2.343-0.9792-0.2798-0.7343-0.5595-1.4337-0.8393-2.0982-0.3497-0.8043-0.7344-1.6786-1.224-2.5878l-0.0349-0.0699c-0.8393 0.3497-1.6087 0.6644-2.343 0.9442l-0.2798 0.1049c-0.5945 0.2797-1.2589 0.5595-1.9583 0.8742 0.3497 0.9442 0.6994 1.8884 1.119 2.7627 0.2448 0.6295 0.5246 1.2939 0.9092 2.0283z"/>
  <path d="m18.359 24.644c-0.5945 0.2798-1.189 0.5595-1.7136 0.8043 0.2448 0.9092 0.5595 1.8185 0.9442 2.6578 0.3147 0.7343 0.7344 1.4687 1.154 2.1681 0.5246-0.2797 1.0841-0.5595 1.6786-0.8393 0.4546-0.2098 0.9792-0.4546 1.5737-0.7343-0.3148-0.6295-0.6295-1.2939-0.9442-2.0283-0.4197-0.9792-0.7694-1.8884-1.0491-2.7627-0.6994 0.2798-1.189 0.5246-1.6436 0.7344z"/>
  <path d="m27.697 37.093c0-0.035-0.07-0.07-0.1049-0.07-0.07 0.035-0.1399 0.035-0.2099 0.07-0.0349 0-0.0699 0.0699-0.0699 0.1049l0.9792 5.9449 1.9933 5.7352c0 0.035 0.0699 0.0699 0.1049 0.0699l0.2098-0.0349c0.035 0 0.07-0.07 0.07-0.105l-1.0142-6.0149-1.9583-5.7001z"/>
  <path d="m21.157 13.278c0 0.035 0.0699 0.07 0.1049 0.035l0.2098-0.035c0.035 0 0.0699-0.0349 0.0699-0.1049l-1.0141-6.0149-1.9933-5.6652c0-0.03497-0.035-0.03497-0.07-0.03497-0.0699 0.03497-0.1398 0.03497-0.2098 0.03497-0.0349 0-0.0699 0.03497-0.0699 0.10492l0.9792 5.945 1.9933 5.7351z"/>
  <path d="m25.773 37.443c0-0.035-0.035-0.07-0.105-0.07-0.0699 0-0.1398 0-0.2098 0.035-0.0349 0-0.0699 0.035-0.0699 0.0699l0.035 6.0149 1.084 5.98c0 0.0349 0.035 0.0699 0.07 0.0699l0.2098-0.035c0.035 0 0.0699-0.0349 0.0699-0.0699l-0.0699-6.0848-1.0141-5.91z"/>
  <path d="m23.08 12.929c0 0.035 0.0349 0.07 0.1049 0.07l0.2098-0.035c0.035 0 0.07-0.035 0.07-0.07l-0.07-6.0848-1.0491-5.91c0-0.03497-0.035-0.069941-0.1049-0.069941-0.07 0-0.1399 0-0.2098 0.034971-0.035 0-0.07 0.03497-0.07 0.069941l0.035 6.0149 1.0841 5.9799z"/>
  <path d="m23.78 37.443h-0.2098c-0.035 0-0.07 0.035-0.1049 0.0699l-0.8743 5.945 0.1399 6.0848c0 0.035 0.035 0.07 0.0699 0.07h0.2099c0.0349 0 0.0699-0.035 0.1049-0.07l0.9092-6.0149-0.1049-6.0149c-0.0699-0.0349-0.1049-0.0699-0.1399-0.0699z"/>
  <path d="m25.074 12.929h0.2098c0.035 0 0.0699-0.035 0.0699-0.07l0.9093-6.0149-0.1049-5.9799c0-0.03497-0.035-0.069941-0.07-0.069941h-0.2098c-0.035 0-0.0699 0.034971-0.0699 0.069941l-0.9093 5.945 0.1399 6.0849c-0.035 0 0 0.035 0.035 0.035z"/>
  <path d="m21.647 37.128c-0.0349 0-0.0699 0-0.1049 0.0699l-1.8184 5.7352-0.8393 6.0149c0 0.0349 0.0349 0.0699 0.0699 0.1049l0.2098 0.035c0.035 0 0.07 0 0.105-0.07l1.8184-5.8051 0.8393-5.9449c0-0.035-0.035-0.07-0.0699-0.1049-0.07 0-0.1399 0-0.2099-0.035z"/>
  <path d="m27.207 13.243c0.035 0 0.0699 0 0.1049-0.0699l1.8185-5.8051 0.8043-5.945c0-0.03497-0.035-0.06994-0.0699-0.10491-0.07 0-0.1399-0.03497-0.2099-0.03497-0.0349 0-0.0699 0-0.1049 0.06994l-1.8184 5.7351-0.8044 6.0148c0 0.035 0.035 0.07 0.07 0.105l0.2098 0.0349z"/>
  <path d="m20.002 36.638c-0.0699-0.0349-0.1398-0.0349-0.2098-0.0699-0.0349 0-0.0699 0-0.1049 0.035l-2.6927 5.3854-1.7485 5.8051c0 0.035 0 0.0699 0.035 0.1049l0.1748 0.0699c0.035 0 0.0699 0 0.1049-0.0349l2.7277-5.4554 1.7485-5.7701c0.035-0.035 0.035-0.07-0.035-0.07z"/>
  <path d="m28.851 13.733 0.1749 0.0699c0.0349 0 0.0699 0 0.1049-0.035l2.7277-5.4553 1.7485-5.7351c0-0.03497 0-0.06994-0.035-0.10491-0.0699-0.03497-0.1399-0.03497-0.2098-0.06994-0.035 0-0.07 0-0.1049 0.03497l-2.6927 5.3854-1.7486 5.8051c-0.0349 0.0699-0.0349 0.1049 0.035 0.1049z"/>
  <path d="m18.325 35.904c0.035-0.0349 0-0.0699-0.035-0.1049-0.0699-0.0349-0.1398-0.0699-0.1748-0.1049s-0.0699 0-0.1049 0.035l-3.497 4.8958-2.6578 5.4554c-0.035 0.035 0 0.0699 0.035 0.1049l0.1748 0.1049c0.035 0.035 0.07 0 0.1049-0.0349l3.532-4.9309 2.6228-5.4204z"/>
  <path d="m30.529 14.468c-0.0349 0.035 0 0.0699 0.035 0.1049l0.1749 0.1049c0.0349 0.035 0.0699 0 0.1049-0.0349l3.532-4.9658 2.6227-5.4204c0.035-0.03497 0-0.10491-0.0349-0.10491-0.07-0.03497-0.1399-0.06994-0.1749-0.10491-0.0349-0.03497-0.0699 0-0.1049 0.03497l-3.497 4.8958-2.6578 5.4903z"/>
  <path d="m16.716 34.82c0.0349-0.035 0.0349-0.0699 0-0.1049-0.07-0.035-0.1049-0.07-0.1749-0.1399-0.035-0.035-0.0699-0.035-0.1049 0l-4.2314 4.3014-3.4621 4.9657c-0.03497 0.035-0.03497 0.07 0 0.105l0.13989 0.1398c0.03497 0.035 0.06994 0.035 0.10491 0l4.3014-4.3363 3.4271-4.9308z"/>
  <path d="m32.138 15.552c-0.035 0.035-0.035 0.07 0 0.105l0.1748 0.1398c0.035 0.035 0.0699 0.035 0.1049 0l4.2664-4.3363 3.4271-4.9308c0.035-0.03497 0.035-0.06994 0-0.10491-0.0699-0.03497-0.1049-0.10491-0.1749-0.13988-0.0349-0.03497-0.0699-0.03497-0.1049 0l-4.2314 4.3014-3.462 4.9657z"/>
  <path d="m15.317 33.491c0.035-0.035 0.035-0.07 0-0.105-0.035-0.0349-0.1049-0.1049-0.1399-0.1398-0.0349-0.035-0.0699-0.035-0.1049 0l-4.8609 3.532-4.1964 4.3713c-0.03497 0.0349-0.03497 0.0699 0 0.1049l0.13988 0.1399c0.03497 0.0349 0.06994 0.0349 0.10491 0l4.8958-3.637 4.1615-4.2663z"/>
  <path d="m33.537 16.88c-0.035 0.035-0.035 0.07 0 0.105l0.1399 0.1398c0.0349 0.035 0.0699 0.035 0.1049 0l4.8958-3.6369 4.1615-4.3363c0.035-0.03497 0.035-0.06994 0-0.10491s-0.1049-0.10491-0.1399-0.13988-0.0699-0.03497-0.1049 0l-4.8259 3.602-4.2314 4.3712z"/>
  <path d="m14.128 31.952c0.035-0.0349 0.035-0.0699 0.035-0.1049-0.035-0.0699-0.07-0.1049-0.1049-0.1748-0.035-0.035-0.07-0.035-0.105-0.035l-5.3504 2.7627-4.8259 3.6719c-0.03497 0.0349-0.03497 0.0699-0.03497 0.1049l0.10491 0.1748c0.03497 0.035 0.06994 0.035 0.10491 0.035l5.3854-2.7976 4.791-3.637z"/>
  <path d="m34.726 18.419c-0.035 0.0349-0.035 0.0699-0.035 0.1049l0.1049 0.1748c0.035 0.035 0.07 0.035 0.1049 0.035l5.3855-2.7976 4.8259-3.6719c0.035-0.035 0.035-0.0699 0.035-0.1049-0.035-0.07-0.07-0.1049-0.105-0.1749-0.0349-0.0349-0.0699-0.0349-0.1049-0.0349l-5.3504 2.7976-4.8609 3.6719z"/>
  <path d="m13.184 30.274c0.035-0.0349 0.07-0.0699 0.035-0.1049-0.035-0.0699-0.0699-0.1399-0.0699-0.1748 0-0.035-0.07-0.07-0.105-0.035l-5.7001 1.9234-5.3854 2.7976c-0.03497 0.035-0.06994 0.0699-0.03497 0.1049l0.06994 0.1749c0.03497 0.0699 0.06994 0.0699 0.10491 0.0699l5.7701-1.9234 5.3155-2.8326z"/>
  <path d="m12.52 28.456c0.035 0 0.0699-0.0699 0.0699-0.1049-0.0349-0.07-0.0349-0.1399-0.0349-0.2098 0-0.035-0.035-0.07-0.105-0.07l-5.9449 0.9792-5.7351 2.0283c-0.069941 0-0.069941 0.0349-0.069941 0.0699l0.03497 0.2098c0 0.035 0.034971 0.07 0.10491 0.07l6.0149-1.0142 5.6652-1.9583z"/>
  <path d="m12.169 26.532c0.0349 0 0.0699-0.0349 0.0699-0.1049 0-0.0699 0-0.1399-0.035-0.2098 0-0.035-0.0349-0.0699-0.0699-0.0699l-6.0149 0.0349-5.9799 1.1191c-0.034971 0-0.069941 0.035-0.069941 0.1049v0.2098c0 0.035 0.03497 0.07 0.069941 0.07l6.0848-0.07 5.945-1.0841z"/>
  <path d="m6.0845 24.714 6.0149-0.1049c0.035 0 0.07-0.035 0.07-0.0699v-0.2099c0-0.0349-0.035-0.0699-0.07-0.0699l-5.9449-0.9092-6.0499 0.1049c-0.034971 0-0.069941 0.035-0.069941 0.0699v0.2098c0 0.035 0.03497 0.07 0.069941 0.07l5.9799 0.9092z"/>
  <path d="m6.4004 21.881 5.945 0.8043c0.0349 0 0.0699-0.035 0.1049-0.0699 0-0.07 0.0349-0.1399 0.0349-0.2099 0-0.0349 0-0.0699-0.0699-0.1049l-5.7351-1.8184-6.0149-0.8043c-0.03497 0-0.069941 0.0349-0.10491 0.0699l-0.03497 0.2098c0 0.035 0 0.07 0.06994 0.1049l5.8051 1.8185z"/>
  <path d="m7.1339 19.084 5.7351 1.7485c0.035 0 0.1049 0 0.1049-0.035 0.035-0.0699 0.035-0.1399 0.07-0.2098 0-0.035 0-0.07-0.035-0.1049l-5.3854-2.6927-5.8051-1.7486c-0.03497 0-0.06994 0-0.10491 0.035l-0.06995 0.1749c0 0.0349 0 0.0699 0.03498 0.1049l5.4554 2.7277z"/>
  <path d="m8.2874 16.461 5.4204 2.6228c0.035 0.035 0.1049 0 0.1049-0.035 0.035-0.0699 0.07-0.1399 0.1049-0.1748 0.035-0.035 0-0.07-0.0349-0.1049l-4.8959-3.4971-5.4554-2.6577c-0.03497-0.035-0.06994 0-0.10491 0.0349l-0.10492 0.1749c-0.03497 0.035 0 0.0699 0.03497 0.1049l4.9308 3.532z"/>
  <path d="m40.601 33.946-5.4554-2.6578c-0.035-0.0349-0.0699 0-0.1049 0.035l-0.1049 0.1749c-0.035 0.0349 0 0.0699 0.035 0.1049l4.9657 3.532 5.4204 2.6228c0.035 0.0349 0.105 0 0.105-0.035 0.0349-0.07 0.0699-0.1399 0.1049-0.1749 0.0349-0.0349 0-0.0699-0.035-0.1049l-4.9308-3.497z"/>
  <path d="m9.8616 14.048 4.9308 3.4271c0.035 0.035 0.0699 0.035 0.1049 0 0.035-0.0699 0.1049-0.1049 0.1399-0.1748 0.035-0.035 0.035-0.07 0-0.1049l-4.3014-4.2314-4.9658-3.4621c-0.03497-0.03497-0.06994-0.03497-0.10491 0l-0.13988 0.13988c-0.03497 0.03497-0.03497 0.06994 0 0.10491l4.3363 4.3013z"/>
  <path d="m39.027 36.359-5.0008-3.4621c-0.035-0.035-0.0699-0.035-0.1049 0l-0.1399 0.1399c-0.035 0.035-0.035 0.0699 0 0.1049l4.3363 4.2664 4.9308 3.4271c0.035 0.0349 0.07 0.0349 0.105 0 0.0349-0.07 0.0699-0.1049 0.1398-0.1749 0.035-0.0349 0.035-0.0699 0-0.1049l-4.2663-4.1964z"/>
  <path d="m16.121 16.041c0.035 0.035 0.07 0.035 0.1049 0 0.035-0.0349 0.1049-0.1049 0.1399-0.1398 0.035-0.035 0.035-0.07 0-0.1049l-3.532-4.826-4.3713-4.1964c-0.03497-0.03497-0.06994-0.03497-0.10491 0l-0.13988 0.13988c-0.03497 0.03497-0.03497 0.06994 0 0.10491l3.6369 4.8958 4.2664 4.1265z"/>
  <path d="m32.732 34.296c-0.035-0.0349-0.07-0.0349-0.105 0l-0.1398 0.1399c-0.035 0.035-0.035 0.07 0 0.1049l3.6369 4.8959 4.3363 4.1614c0.035 0.035 0.0699 0.035 0.1049 0 0.035-0.0349 0.1049-0.1049 0.1749-0.1398 0.0349-0.035 0.0349-0.07 0-0.1049l-3.637-4.826-4.3712-4.2314z"/>
  <path d="m14.023 10.096 3.6369 4.791c0.035 0.035 0.07 0.035 0.105 0.035 0.0699-0.035 0.1049-0.07 0.1748-0.105 0.035-0.0349 0.035-0.0699 0.035-0.1049l-2.7627-5.3504-3.7068-4.8609c-0.035-0.03497-0.07-0.03497-0.1049-0.03497l-0.1749 0.10491c-0.035 0.03497-0.035 0.06994-0.035 0.10491l2.8326 5.4204z"/>
  <path d="m31.194 35.485c-0.0349-0.035-0.0699-0.035-0.1049-0.035l-0.1748 0.1049c-0.035 0.035-0.035 0.0699-0.035 0.1049l2.7976 5.3854 3.6369 4.791c0.035 0.0349 0.07 0.0349 0.105 0.0349 0.0699-0.0349 0.1049-0.0699 0.1748-0.1049 0.035-0.0349 0.035-0.0699 0.035-0.1049l-2.7976-5.3504-3.637-4.8259z"/>
  <path d="m19.338 13.943c0.035 0.035 0.07 0.0699 0.1049 0.035 0.07-0.035 0.1399-0.07 0.2098-0.07 0.035 0 0.07-0.0699 0.035-0.1049l-1.9234-5.7002-2.8326-5.3854c-0.0349-0.03497-0.0699-0.06994-0.1049-0.03497l-0.1748 0.06994c-0.035 0-0.07 0.06994-0.035 0.10491l1.9234 5.7701 2.7976 5.3155z"/>
  <path d="m29.515 36.429c-0.035-0.0349-0.07-0.0699-0.105-0.0349l-0.1748 0.0699c-0.035 0-0.0699 0.07-0.035 0.1049l1.9234 5.7701 2.8326 5.3155c0.035 0.035 0.0699 0.07 0.1049 0.035 0.0699-0.035 0.1399-0.0699 0.2098-0.0699 0.035 0 0.07-0.07 0.035-0.105l-1.9234-5.7001-2.8675-5.3855z"/>
 <path d="m232.87 31.848c-1.679 0-1.714-1.0492-1.714-2.2382v-6.3296h2.973v-1.7135h-2.973v-4.5112h-2.098v12.24c0 1.3988-0.07 2.5878 0.769 3.4621 0.63 0.6294 1.574 0.9092 2.658 0.9092 0.84 0 1.504-0.1748 1.959-0.3497-0.245-0.5945-0.455-1.0491-0.63-1.5037-0.28 0-0.594 0.035-0.944 0.035zm-150.86-10.561c-3.2872 0-5.4554 2.5179-5.4554 6.2597 0 3.497 2.0283 6.0849 5.5953 6.0849 2.2031 0 3.7068-0.8743 4.1614-1.189-0.2448-0.5246-0.6644-1.5038-0.6644-1.5038-0.2098 0.1049-1.4688 0.9093-3.3222 0.9093-2.5528 0-3.7068-1.8185-3.7068-3.8468h8.183c0-0.2098 0.035-0.6294 0.035-0.8742 0-3.6719-1.8884-5.8401-4.8259-5.8401zm-3.3921 5.1057c0.1748-2.0982 1.5387-3.4621 3.3921-3.4621 2.1681 0 2.8326 2.0982 2.8326 3.4621zm-8.393-5.1056c-1.7834 0-3.3221 0.9442-3.462 1.0491v-5.2456h-2.0633v16.296h2.0633v-9.3371c0.1049-0.0699 1.5736-1.0141 3.0774-1.0141 0.7343 0 1.3288 0.2797 1.6436 0.5945 0.5945 0.5945 0.6294 1.5736 0.6294 3.0424v6.6793h2.0633v-6.8192c0-1.8884-0.035-3.1124-1.154-4.2314-0.3497-0.3847-1.1541-1.0141-2.7977-1.0141zm174.64 1.0141c-0.35-0.3497-1.189-1.0141-2.833-1.0141-1.783 0-3.322 0.9442-3.462 1.0491v-5.2456h-2.063v16.296h2.063v-9.3371c0.105-0.0699 1.574-1.0141 3.078-1.0141 0.734 0 1.328 0.2797 1.643 0.5945 0.595 0.5945 0.63 1.5736 0.63 3.0424v6.6793h2.063v-6.8192c0.07-1.8884 0-3.1124-1.119-4.2314zm-18.604-5.2455h-2.063v16.296h2.063zm-9.232 4.2313c-2.203 0-3.672 0.8393-4.057 1.1191 0.245 0.5595 0.63 1.4687 0.63 1.4687 0.174-0.1049 1.503-0.9092 3.217-0.9092 0.839 0 1.609 0.1399 2.063 0.5945 0.455 0.4546 0.49 0.9792 0.49 1.6436v0.7693h-0.525c-1.818 0-6.714 0.105-6.714 3.9867 0 2.1681 1.504 3.6369 3.777 3.6369 2.028 0 3.462-1.0491 3.602-1.1191l0.384 0.8743h1.469v-7.3788c0-1.6086-0.07-2.6227-0.944-3.497-0.839-0.8393-2.133-1.189-3.392-1.189zm2.343 9.7567c-0.28 0.105-1.469 0.8743-2.938 0.8743s-2.343-0.8393-2.343-2.0283c0-0.5945 0.175-1.0141 0.525-1.3638 0.769-0.7694 2.273-1.0142 4.126-1.0142h0.595v3.532zm-13.849-9.7567c-3.287 0-5.455 2.5179-5.455 6.2597 0 3.497 2.028 6.0849 5.595 6.0849 2.168 0 3.672-0.8743 4.127-1.1541-0.21-0.5245-0.63-1.5037-0.63-1.5037-0.21 0.1049-1.469 0.9092-3.322 0.9092-2.553 0-3.707-1.8184-3.707-3.8467h8.183c0-0.2098 0.035-0.6295 0.035-0.8743 0-3.7068-1.888-5.875-4.826-5.875zm-3.392 5.1057c0.175-2.0982 1.539-3.4621 3.392-3.4621 2.168 0 2.833 2.0982 2.833 3.4621zm-7.518 4.7909-2.623-9.5819h-2.273l-2.658 9.5819-2.483-9.5819h-2.028l3.252 11.75h2.273l2.658-9.6519 2.693 9.6519h2.308l3.392-11.75h-1.958zm-17.695-9.8966c-1.993 0-3.462 1.0841-3.672 1.189l-0.385-0.8742h-1.468v11.75h2.063v-9.3021c0.105-0.07 1.574-1.0142 3.077-1.0142 0.735 0 1.329 0.2798 1.644 0.5945 0.594 0.5945 0.629 1.5737 0.629 3.0425v6.6793h2.064v-6.8192c0-1.8884-0.035-3.1124-1.154-4.2314-0.315-0.3847-1.154-1.0142-2.798-1.0142zm-13.254 0c-3.427 0-5.63 2.5179-5.63 6.1898 0 3.7068 2.203 6.1548 5.456 6.1548 3.392 0 5.595-2.448 5.595-6.1548 0.035-3.7768-2.133-6.1898-5.421-6.1898zm-0.034 10.596c-2.029 0-3.533-1.7835-3.533-4.4762 0-2.6577 1.329-4.4062 3.463-4.4062 2.028 0 3.497 1.8184 3.497 4.5111 0 2.6578-1.259 4.3713-3.427 4.3713zm-11.891-10.596c-1.783 0-3.112 0.7344-4.091 1.3639-0.525-0.7344-1.399-1.3639-2.903-1.3639-1.853 0-3.462 1.0841-3.602 1.189l-0.385-0.8742h-1.468v11.75h2.063v-9.3371c0.175-0.1049 1.574-0.9792 3.007-0.9792 0.7 0 1.224 0.2099 1.539 0.5246 0.595 0.6295 0.595 1.7135 0.595 3.2872v6.5045h2.028v-6.5744c0-0.9442 0-2.2381-0.21-2.7277 0.28-0.1749 1.679-0.9792 3.112-0.9792 0.7 0 1.224 0.2098 1.609 0.5945 0.594 0.6644 0.594 2.0982 0.594 2.8326v6.8542h2.064v-6.8192c0-1.8884-0.035-3.1124-1.154-4.2314-0.35-0.3847-1.154-1.0142-2.798-1.0142zm-19.199 0c-1.784 0-3.113 0.7344-4.092 1.3639-0.524-0.7344-1.398-1.3639-2.902-1.3639-1.854 0-3.462 1.0841-3.602 1.189l-0.385-0.8742h-1.469v11.75h2.064v-9.3371c0.175-0.1049 1.573-0.9792 3.007-0.9792 0.7 0 1.224 0.2099 1.539 0.5246 0.594 0.6295 0.594 1.7135 0.594 3.2872v6.5045h2.029v-6.5744c0-0.9442 0-2.2381-0.21-2.7277 0.28-0.1749 1.678-0.9792 3.112-0.9792 0.7 0 1.224 0.2098 1.609 0.5945 0.594 0.6644 0.594 2.0982 0.594 2.8326v6.8542h2.063v-6.8192c0-1.8884-0.034-3.1124-1.154-4.2314-0.349-0.3847-1.189-1.0142-2.797-1.0142zm-20.177 0c-3.427 0-5.631 2.5179-5.631 6.1898 0 3.7068 2.169 6.1548 5.456 6.1548 3.392 0 5.595-2.448 5.595-6.1548 0-3.7768-2.133-6.1898-5.42-6.1898zm-0.07 10.596c-2.029 0-3.532-1.7835-3.532-4.4762 0-2.6577 1.329-4.4062 3.462-4.4062 2.028 0 3.497 1.8184 3.497 4.5111 0 2.6578-1.224 4.3713-3.427 4.3713zm-12.065-0.1748c-3.567 0-5.8051-2.5878-5.8051-6.5394 0-4.0566 2.6578-6.4695 5.9801-6.4695 2.273 0 3.707 0.9792 3.917 1.0841 0 0 0.454-1.0491 0.734-1.6786-0.56-0.4197-2.098-1.3289-4.756-1.3289-4.4763 0-8.0782 3.1473-8.0782 8.5677 0 5.2106 3.4271 8.288 7.7634 8.288 2.7628 0 4.5808-1.0491 5.2108-1.5037-0.21-0.5246-0.735-1.6786-0.735-1.6786-0.174 0.1049-1.888 1.2589-4.231 1.2589zm-49.063-14.652v1.8185h4.721v14.478h2.2032v-14.478h4.7209l-0.7693-1.8185z"/>
 </g>
</svg>
