<svg xmlns="http://www.w3.org/2000/svg" width="37" height="37" viewBox="0 0 37 37" fill="none">
<path d="M20.794 5.45126L33.8401 28.047C34.0391 28.3916 34.1438 28.7824 34.1438 29.1803C34.1438 29.5781 34.0391 29.969 33.8401 30.3135C33.6412 30.6581 33.3551 30.9442 33.0106 31.1432C32.666 31.3421 32.2752 31.4468 31.8773 31.4468H5.78503C5.38717 31.4468 4.99633 31.3421 4.65178 31.1432C4.30723 30.9442 4.02112 30.6581 3.8222 30.3135C3.62327 29.969 3.51855 29.5781 3.51855 29.1803C3.51856 28.7824 3.62328 28.3916 3.82221 28.047L16.8684 5.45126C17.7402 3.94024 19.9206 3.94024 20.794 5.45126ZM18.8312 23.3599C18.4304 23.3599 18.0461 23.5191 17.7627 23.8024C17.4793 24.0858 17.3201 24.4701 17.3201 24.8709C17.3201 25.2716 17.4793 25.656 17.7627 25.9393C18.0461 26.2227 18.4304 26.3819 18.8312 26.3819C19.2319 26.3819 19.6162 26.2227 19.8996 25.9393C20.183 25.656 20.3422 25.2716 20.3422 24.8709C20.3422 24.4701 20.183 24.0858 19.8996 23.8024C19.6162 23.5191 19.2319 23.3599 18.8312 23.3599ZM18.8312 12.7827C18.4611 12.7828 18.1039 12.9186 17.8273 13.1646C17.5507 13.4105 17.374 13.7494 17.3307 14.117L17.3201 14.2937V20.3378C17.3206 20.7229 17.468 21.0934 17.7324 21.3734C17.9968 21.6535 18.3581 21.822 18.7426 21.8446C19.1271 21.8671 19.5057 21.7421 19.801 21.4949C20.0963 21.2477 20.2861 20.897 20.3316 20.5146L20.3422 20.3378V14.2937C20.3422 13.893 20.183 13.5087 19.8996 13.2253C19.6162 12.9419 19.2319 12.7827 18.8312 12.7827Z" fill="white"/>
</svg>